<svg width="25" height="24" viewBox="0 0 25 24" fill="none" xmlns="http://www.w3.org/2000/svg">
<path fill-rule="evenodd" clip-rule="evenodd" d="M12.75 4C8.33172 4 4.75 7.58172 4.75 12C4.75 16.4183 8.33172 20 12.75 20C17.1683 20 20.75 16.4183 20.75 12C20.75 7.58172 17.1683 4 12.75 4ZM2.75 12C2.75 6.47715 7.22715 2 12.75 2C18.2728 2 22.75 6.47715 22.75 12C22.75 17.5229 18.2728 22 12.75 22C7.22715 22 2.75 17.5229 2.75 12ZM15.4988 9.25991L12.585 10.2558C11.7494 10.562 11.2135 11.1395 11.0182 11.79C11.0145 11.8022 11.0106 11.8143 11.0065 11.8263L10.0098 14.7372L12.915 13.7442C13.7506 13.4381 14.2865 12.8605 14.4818 12.21C14.4867 12.1936 14.4921 12.1772 14.4979 12.161L14.9924 10.7777L15.4988 9.25991ZM17.245 7.40323C17.6648 7.78451 17.8276 8.34963 17.7151 8.91202C17.7069 8.95271 17.6962 8.99285 17.6831 9.03222L16.8862 11.4208L16.8793 11.4409L16.3893 12.8116C15.9817 14.1364 14.9317 15.1394 13.5895 15.627L13.5715 15.6334L9.7862 16.9272C9.75952 16.9363 9.73246 16.9443 9.7051 16.9511C9.2018 17.0768 8.65425 16.9594 8.25501 16.5968C7.83523 16.2155 7.67236 15.6504 7.78493 15.088C7.7936 15.0447 7.80511 15.0021 7.81941 14.9603L9.10862 11.1952C9.51471 9.86709 10.566 8.86145 11.9105 8.37298L11.9285 8.36662L15.7138 7.07282C15.7405 7.0637 15.7675 7.05571 15.7949 7.04888C16.2982 6.92317 16.8457 7.04061 17.245 7.40323Z" fill="black"/>
</svg>
