<svg width="25" height="24" viewBox="0 0 25 24" fill="none" xmlns="http://www.w3.org/2000/svg">
<path fill-rule="evenodd" clip-rule="evenodd" d="M4.5 5.68809C4.5 3.88644 5.90423 2.28809 7.81339 2.28809H12.8425C13.8927 2.28809 14.9567 2.67989 15.7604 3.47893L15.7701 3.48859L19.3866 7.18414C20.1883 7.98458 20.5956 9.15706 20.4809 10.2452V18.8881C20.4809 20.6897 19.0767 22.2881 17.1675 22.2881H7.81339C5.90423 22.2881 4.5 20.6897 4.5 18.8881V5.68809ZM7.81339 4.28809C7.10742 4.28809 6.5 4.88974 6.5 5.68809V18.8881C6.5 19.6864 7.10742 20.2881 7.81339 20.2881H17.1675C17.8735 20.2881 18.4809 19.6864 18.4809 18.8881V10.1881C18.4809 10.1464 18.4835 10.1047 18.4888 10.0633C18.5504 9.57265 18.3563 8.98011 17.9712 8.59724L17.9615 8.58758L14.3459 4.89292C13.943 4.49478 13.3996 4.28809 12.8425 4.28809H7.81339Z" fill="black"/>
<path fill-rule="evenodd" clip-rule="evenodd" d="M8.5 14.2881C8.5 13.7358 8.94772 13.2881 9.5 13.2881H15.5C16.0523 13.2881 16.5 13.7358 16.5 14.2881C16.5 14.8404 16.0523 15.2881 15.5 15.2881H9.5C8.94772 15.2881 8.5 14.8404 8.5 14.2881Z" fill="black"/>
<path fill-rule="evenodd" clip-rule="evenodd" d="M8.5 17.2881C8.5 16.7358 8.94772 16.2881 9.5 16.2881H12.5C13.0523 16.2881 13.5 16.7358 13.5 17.2881C13.5 17.8404 13.0523 18.2881 12.5 18.2881H9.5C8.94772 18.2881 8.5 17.8404 8.5 17.2881Z" fill="black"/>
</svg>
