<svg width="25" height="24" viewBox="0 0 25 24" fill="none" xmlns="http://www.w3.org/2000/svg">
<path fill-rule="evenodd" clip-rule="evenodd" d="M4.76875 4C4.50584 4 4.25 4.17639 4.25 4.61265V10.0198C4.25 10.6946 4.51819 11.3912 5.09594 11.9686L12.7638 19.6316C13.3527 20.1462 14.1579 20.0923 14.5982 19.6524L19.893 14.3609C20.4023 13.779 20.3462 13.0056 19.857 12.5657C19.844 12.5539 19.8313 12.5419 19.8189 12.5295L12.1302 4.84567C12.1145 4.82998 12.0993 4.81378 12.0847 4.79708C11.6359 4.28446 10.9767 4 10.1793 4H4.76875ZM2.25 4.61265C2.25 3.15168 3.32307 2 4.76875 2H10.1793C11.4587 2 12.6874 2.46606 13.566 3.453L21.2156 11.0978C22.5983 12.3626 22.5406 14.4099 21.3638 15.7166C21.352 15.7297 21.34 15.7424 21.3276 15.7548L16.0119 21.067C14.7479 22.3302 12.7171 22.2797 11.409 21.1032C11.396 21.0915 11.3832 21.0794 11.3708 21.067L3.68218 13.3832C2.74119 12.4428 2.25 11.2422 2.25 10.0198V4.61265Z" fill="black"/>
<path d="M9.15921 9.2554C9.71632 8.69828 9.71632 7.79502 9.15921 7.2379C8.60209 6.68079 7.69883 6.68079 7.14171 7.2379C6.5846 7.79502 6.5846 8.69828 7.14171 9.2554C7.69883 9.81251 8.60209 9.81251 9.15921 9.2554Z" fill="black"/>
</svg>
