<svg width="16" height="16" viewBox="0 0 16 16" fill="none" xmlns="http://www.w3.org/2000/svg">
<path fill-rule="evenodd" clip-rule="evenodd" d="M7.37575 0.720318C10.9169 0.424994 13.8998 3.08927 13.9744 6.52453L13.9746 6.53895C13.9746 7.73973 13.5984 8.86199 12.9318 9.82573L12.9251 9.83516L9.55575 14.5295C9.54911 14.5388 9.54214 14.5479 9.53504 14.5569C8.76055 15.5257 7.23734 15.5853 6.49316 14.5265L3.12272 9.83071C2.24415 8.58511 1.78247 7.01251 2.15583 5.34818C2.6162 2.85262 4.79214 1.0155 7.3555 0.722317C7.36221 0.721547 7.36898 0.720876 7.37575 0.720318ZM7.49623 2.04254C5.4446 2.28136 3.79702 3.74189 3.45949 5.59974C3.45776 5.60923 3.45584 5.61868 3.4537 5.62809C3.1724 6.8668 3.50267 8.06487 4.20612 9.06326L7.57855 13.7619C7.75825 14.0188 8.20646 14.079 8.48879 13.7392L11.843 9.06585C12.3621 8.31367 12.6454 7.45654 12.6469 6.54615C12.5854 3.90529 10.2903 1.81503 7.49623 2.04254Z" fill="#0088FF"/>
<path fill-rule="evenodd" clip-rule="evenodd" d="M8 5.26662C7.30041 5.26662 6.73335 5.83373 6.73335 6.53328C6.73335 7.23287 7.30041 7.79993 8 7.79993C8.69953 7.79993 9.26665 7.23287 9.26665 6.53328C9.26665 5.83373 8.69953 5.26662 8 5.26662ZM5.40002 6.53328C5.40002 5.09735 6.56407 3.93329 8 3.93329C9.43592 3.93329 10.6 5.09735 10.6 6.53328C10.6 7.9692 9.43592 9.13327 8 9.13327C6.56407 9.13327 5.40002 7.9692 5.40002 6.53328Z" fill="#0088FF"/>
<path fill-rule="evenodd" clip-rule="evenodd" d="M8 5.26662C7.30041 5.26662 6.73335 5.83373 6.73335 6.53328C6.73335 7.23287 7.30041 7.79993 8 7.79993C8.69953 7.79993 9.26665 7.23287 9.26665 6.53328C9.26665 5.83373 8.69953 5.26662 8 5.26662ZM5.40002 6.53328C5.40002 5.09735 6.56407 3.93329 8 3.93329C9.43592 3.93329 10.6 5.09735 10.6 6.53328C10.6 7.9692 9.43592 9.13327 8 9.13327C6.56407 9.13327 5.40002 7.9692 5.40002 6.53328Z" fill="#0088FF"/>
<path fill-rule="evenodd" clip-rule="evenodd" d="M8 5.26662C7.30041 5.26662 6.73335 5.83373 6.73335 6.53328C6.73335 7.23287 7.30041 7.79993 8 7.79993C8.69953 7.79993 9.26665 7.23287 9.26665 6.53328C9.26665 5.83373 8.69953 5.26662 8 5.26662ZM5.40002 6.53328C5.40002 5.09735 6.56407 3.93329 8 3.93329C9.43592 3.93329 10.6 5.09735 10.6 6.53328C10.6 7.9692 9.43592 9.13327 8 9.13327C6.56407 9.13327 5.40002 7.9692 5.40002 6.53328Z" fill="#0088FF"/>
</svg>
