<svg width="24" height="25" viewBox="0 0 24 25" fill="none" xmlns="http://www.w3.org/2000/svg">
<path fill-rule="evenodd" clip-rule="evenodd" d="M10.0144 2.0089C11.2164 1.33032 12.6836 1.33032 13.8856 2.0089C13.8947 2.01399 13.9036 2.01922 13.9125 2.0246L20.1001 5.77693C21.3211 6.4731 22 7.73096 22 9.09581V16.0058C22 17.3255 21.3552 18.6183 20.1836 19.2331L14.0125 22.9754C14.0036 22.9807 13.9947 22.986 13.9856 22.9911C12.7836 23.6697 11.3164 23.6697 10.1144 22.9911C10.1053 22.986 10.0964 22.9807 10.0875 22.9754L3.89984 19.223C2.67884 18.5268 2 17.269 2 15.9042V9.09581C2 7.73221 2.6776 6.47542 3.8965 5.77886L9.98139 2.02836C9.99225 2.02166 10.0032 2.01517 10.0144 2.0089ZM11.0006 3.7771L4.91861 7.52584C4.90775 7.53254 4.89675 7.53902 4.88564 7.5453C4.31578 7.867 4 8.43371 4 9.09581V15.9042C4 16.5663 4.31578 17.133 4.88564 17.4547C4.89466 17.4598 4.9036 17.465 4.91246 17.4704L11.0978 21.2213C11.6895 21.5498 12.4105 21.5498 13.0022 21.2213L19.1875 17.4704C19.2088 17.4575 19.2306 17.4454 19.2528 17.4341C19.6582 17.2281 20 16.7048 20 16.0058V9.09581C20 8.43371 19.6842 7.867 19.1144 7.5453C19.1053 7.54021 19.0964 7.53497 19.0875 7.5296L12.9022 3.77867C12.3115 3.45069 11.5918 3.45017 11.0006 3.7771ZM12 10.4169C10.8402 10.4169 9.89999 11.3723 9.89999 12.5508C9.89999 13.7294 10.8402 14.6848 12 14.6848C13.1598 14.6848 14.1 13.7294 14.1 12.5508C14.1 11.3723 13.1598 10.4169 12 10.4169ZM7.89999 12.5508C7.89999 10.2498 9.73563 8.38449 12 8.38449C14.2644 8.38449 16.1 10.2498 16.1 12.5508C16.1 14.8518 14.2644 16.7171 12 16.7171C9.73563 16.7171 7.89999 14.8518 7.89999 12.5508Z" fill="black"/>
</svg>
