<svg width="16" height="16" viewBox="0 0 16 16" fill="none" xmlns="http://www.w3.org/2000/svg">
<path d="M4.84127 14.9811C4.49246 14.9811 4.14365 14.8415 3.79485 14.6321C3.23675 14.2132 2.88794 13.5151 3.02747 12.817L3.44604 10.0943L1.56248 8.13964C1.07414 7.65097 0.864862 6.88304 1.1439 6.18493C1.35319 5.48682 1.91129 5.06796 2.6089 4.92834L5.25984 4.50947L6.44579 2.06609C6.72485 1.43779 7.35266 1.01892 8.05028 1.01892C8.74791 1.01892 9.37579 1.43779 9.72456 2.06609L10.8408 4.50947L13.422 4.92834C14.1196 4.99815 14.6777 5.48682 14.8869 6.18493C15.0962 6.88304 14.9567 7.58115 14.4684 8.13964L12.5848 10.0943L13.0034 12.817C13.1429 13.5151 12.8638 14.283 12.236 14.6321C11.6779 15.0509 10.9803 15.0509 10.3524 14.7717L8.05028 13.4453L5.74817 14.7019C5.46913 14.9113 5.19008 14.9811 4.84127 14.9811ZM8.05028 2.41514C7.98054 2.41514 7.77125 2.41514 7.70151 2.69438L6.37603 5.48682C6.2365 5.69626 6.02722 5.83588 5.81793 5.83588L2.81819 6.32456C2.6089 6.32456 2.53914 6.53399 2.46938 6.6038C2.46938 6.67361 2.39962 6.88304 2.6089 7.09248L4.77151 9.25662C4.91103 9.39624 4.98079 9.60567 4.98079 9.88492L4.49246 12.9566C4.4227 13.2358 4.63199 13.3755 4.70174 13.4453C4.77151 13.5151 4.91103 13.5849 5.12032 13.4453L7.77125 11.9792C7.98054 11.8396 8.25958 11.8396 8.46887 11.9792L11.1198 13.4453C11.3291 13.5151 11.4686 13.4453 11.5384 13.4453C11.6081 13.3755 11.7477 13.2358 11.7477 12.9566L11.2594 9.88492C11.1895 9.67548 11.2594 9.46605 11.4686 9.25662L13.6313 7.09248C13.701 6.95286 13.6313 6.67361 13.6313 6.6038C13.6313 6.53399 13.4917 6.32456 13.2824 6.32456L10.2827 5.90569C10.0734 5.90569 9.86411 5.69626 9.72456 5.48682L8.39913 2.69438C8.32932 2.41514 8.1201 2.41514 8.05028 2.41514Z" fill="#FFE83A"/>
</svg>
