<svg width="24" height="24" viewBox="0 0 24 24" fill="none" xmlns="http://www.w3.org/2000/svg">
<path d="M6.03339 16.7001H2.73339C2.53339 16.7001 2.43339 16.6001 2.33339 16.5001C2.23339 16.4001 2.13339 16.2001 2.23339 16.0001C2.83339 14.3001 4.33339 13.3001 6.03339 13.3001C8.13339 13.3001 9.8334 11.5001 9.8334 9.40006C9.8334 7.30005 8.13339 5.30005 6.03339 5.30005C3.93339 5.30005 2.23339 7.10005 2.23339 9.30006C2.23339 10.3001 2.63339 11.3001 3.23339 12.0001C1.93339 12.7001 0.933389 13.8001 0.333389 15.3001C0.133392 16.0001 0.233392 16.9001 0.733389 17.6001C1.23339 18.3001 1.93339 18.7001 2.73339 18.7001H6.03339C6.63339 18.7001 7.03339 18.3001 7.03339 17.7001C7.03339 17.1001 6.63339 16.7001 6.03339 16.7001ZM4.23339 9.30006C4.23339 8.20006 5.03339 7.40005 6.03339 7.40005C7.03339 7.40005 7.83339 8.30006 7.83339 9.30006C7.83339 10.4001 7.03339 11.2001 6.03339 11.2001C5.03339 11.2001 4.23339 10.3001 4.23339 9.30006Z" fill="#0088FF"/>
<path d="M23.5231 16.15C22.8231 14.25 21.4231 12.85 19.8231 12.05C20.7231 11.25 21.2231 10.05 21.2231 8.64995C21.2231 6.04995 19.2231 3.94995 16.8231 3.94995C14.4231 3.94995 12.4231 6.04995 12.4231 8.64995C12.4231 9.94995 12.9231 11.15 13.8231 12.05C12.2231 12.85 10.8231 14.25 10.1231 16.15C9.62312 17.0499 9.82312 18.05 10.3231 18.85C10.8231 19.65 11.7231 20.05 12.6231 20.05H20.9231C21.8231 20.05 22.7231 19.55 23.2231 18.85C23.8231 18.05 23.9231 17.0499 23.5231 16.15ZM14.3231 8.74995C14.3231 7.24995 15.4231 6.04995 16.7231 6.04995C18.0231 6.04995 19.1231 7.24995 19.1231 8.74995C19.1231 10.25 18.0231 11.45 16.7231 11.45C15.4231 11.45 14.3231 10.15 14.3231 8.74995ZM21.5231 17.75C21.4231 17.85 21.2231 18.15 20.9231 18.15H12.6231C12.2231 18.15 12.0231 17.85 12.0231 17.75C11.9231 17.65 11.7231 17.25 11.9231 16.85C12.7231 14.75 14.7231 13.35 16.8231 13.35C18.9231 13.35 20.9231 14.75 21.7231 16.85C21.8231 17.25 21.6231 17.65 21.5231 17.75Z" fill="#0088FF"/>
</svg>
